<svg width="1440" height="211" viewBox="0 0 1440 211" fill="none" xmlns="http://www.w3.org/2000/svg">
<path d="M112.092 17.2755C176.767 29.1063 226.398 54.3626 273.393 82.5117C318.557 109.548 363.349 138.031 422.13 154.479C543.354 188.377 685.794 171.168 804.567 142.111C937.268 109.622 1062.03 60.7416 1205.43 46.4816C1275.78 39.4907 1351.07 42.7729 1412.36 66.3418C1463.14 85.8125 1490.65 116.632 1502.13 151.29C1508.64 170.964 1510.88 190.973 1512.65 211H1528C1527.5 205.326 1526.98 199.651 1526.32 194.014C1522.51 161.229 1515.06 127.257 1486.22 98.4777C1453.46 65.8967 1395.42 45.2021 1334.01 37.692C1259 28.5129 1181.14 37.2469 1109.8 51.4698C1040.84 65.1735 975.546 84.4959 910.219 103.392C785.521 139.292 647.299 175.712 505.448 160.58C472.199 157.151 440.152 150.399 410.653 140.609C381.526 130.743 356.028 117.911 331.926 104.245C284.839 77.4864 242.218 47.0935 185.98 26.844C127.12 5.8494 58.4861 -3.21124 -9.68981 1.01282H-10V10.4329C31.0523 7.73206 72.5948 10.0603 112.092 17.2755Z" fill="#407BFF"/>
</svg>
