<svg width="1440" height="256" viewBox="0 0 1440 256" fill="none" xmlns="http://www.w3.org/2000/svg">
<path d="M-4.64762 52.4581C-5.90353 52.0437 -7.04005 51.3599 -7.91227 50.4937C-8.78449 49.6275 -9.3529 48.6183 -9.54503 47.5948C-9.73716 46.5712 -9.54431 45.5796 -8.99105 44.7465C-8.4378 43.9133 -7.54922 43.2764 -6.43859 42.9168C88.0243 11.8668 193.083 -2.21135 302.318 1.54271C415.435 6.36503 519.228 32.7471 602.396 77.742C631.575 93.0656 658.586 111.227 682.636 131.692C705.091 112.437 740.475 97.7711 792.753 95.3503C845.031 92.9296 901.716 94.7553 962.188 96.8033C1109.49 101.878 1276.42 107.879 1445.77 52.099C1447.25 51.6193 1449.01 51.6634 1450.68 52.2219C1452.35 52.7803 1453.78 53.8076 1454.67 55.0794C1455.12 55.7147 1455.42 56.392 1455.54 57.0723C1455.67 57.7526 1455.63 58.4224 1455.42 59.0432C1455.22 59.6639 1454.85 60.2233 1454.33 60.6889C1453.82 61.1546 1453.18 61.5174 1452.44 61.7564C1280.87 118.052 1112.54 112.261 963.932 107.113C903.823 105.03 847.044 103.068 795.902 105.66C745.943 108.073 713.1 122.282 691.953 140.354C729.477 176.552 738.845 208.344 731.92 230.707C726.316 247.446 711.301 257.689 694.762 255.498C671.925 252.402 654.694 234.24 650.728 209.382C647.7 182.927 656.359 158.101 675.225 139.146C651.787 119.041 625.383 101.221 596.817 86.2277C439.038 0.67127 199.323 -12.7541 0.22877 52.7835C-1.27464 53.1828 -3.02418 53.0661 -4.64762 52.4581V52.4581ZM684.542 147.599C668.403 164.525 661.084 186.388 663.779 209.62C666.174 225.116 675.546 242.633 694.706 245.178C703.575 246.37 714.869 240.32 719.308 226.432C725.273 207.356 717.013 179.596 684.542 147.599Z" fill="#3362CC"/>
</svg>
