<svg width="493" height="384" viewBox="0 0 493 384" fill="none" xmlns="http://www.w3.org/2000/svg">
<path d="M180.583 364.733C132.383 356.024 84.6533 337.22 50.7878 300.641C35.202 284.209 23.6943 264.349 17.191 242.66C11.8683 222.877 10.4833 202.242 13.1146 181.926C17.8182 139.862 34.3478 100.014 46.9801 59.9426C53.9459 37.9368 60.1949 15.1699 62.6586 -8H51.4597C51.1461 -5.31364 50.7878 -2.64966 50.3622 0.0143137C43.7325 42.8842 26.4637 83.2244 14.1897 124.639C2.49805 164.218 -5.2964 206.909 6.93282 247.406C20.3715 292.022 55.3569 327.437 96.0538 348.682C143.089 373.172 196.844 381.052 249.233 382.687C306.974 384.478 364.537 378.209 422.099 374.605C446.602 373.06 471.665 372.098 496.751 372.478V361.017C391.369 359.517 285.427 383.761 180.583 364.733Z" fill="#407BFF"/>
</svg>
